<mxfile>
    <diagram id="YDsdAyCjaSUe6RAEN0rL" name="第 1 页">
        <mxGraphModel dx="1529" dy="494" grid="1" gridSize="10" guides="1" tooltips="1" connect="1" arrows="1" fold="1" page="1" pageScale="1" pageWidth="827" pageHeight="1169" math="0" shadow="0">
            <root>
                <mxCell id="0"/>
                <mxCell id="1" parent="0"/>
                <mxCell id="18" value="生产(创建)活动：运营参与使用" style="rounded=0;whiteSpace=wrap;html=1;align=left;verticalAlign=top;fillColor=none;dashed=1;" vertex="1" parent="1">
                    <mxGeometry x="10" y="370" width="510" height="530" as="geometry"/>
                </mxCell>
                <mxCell id="24" value="配置H5" style="rounded=0;whiteSpace=wrap;html=1;fillColor=none;verticalAlign=top;align=left;" vertex="1" parent="1">
                    <mxGeometry x="30" y="560" width="470" height="320" as="geometry"/>
                </mxCell>
                <mxCell id="3" value="客户端访问活动(消费活动)" style="rounded=0;whiteSpace=wrap;html=1;align=left;verticalAlign=top;fillColor=none;dashed=1;" vertex="1" parent="1">
                    <mxGeometry x="10" y="10" width="510" height="350" as="geometry"/>
                </mxCell>
                <mxCell id="8" value="" style="edgeStyle=orthogonalEdgeStyle;rounded=0;orthogonalLoop=1;jettySize=auto;html=1;strokeColor=#000000;strokeWidth=2;exitX=0.25;exitY=1;exitDx=0;exitDy=0;entryX=0.25;entryY=0;entryDx=0;entryDy=0;" edge="1" parent="1" source="4" target="5">
                    <mxGeometry relative="1" as="geometry"/>
                </mxCell>
                <mxCell id="4" value="用户终端" style="rounded=0;whiteSpace=wrap;html=1;fillColor=none;verticalAlign=middle;" vertex="1" parent="1">
                    <mxGeometry x="200" y="40" width="120" height="60" as="geometry"/>
                </mxCell>
                <mxCell id="9" value="" style="edgeStyle=orthogonalEdgeStyle;rounded=0;orthogonalLoop=1;jettySize=auto;html=1;strokeColor=#000000;strokeWidth=2;entryX=0.25;entryY=0;entryDx=0;entryDy=0;exitX=0.25;exitY=1;exitDx=0;exitDy=0;" edge="1" parent="1" source="5" target="6">
                    <mxGeometry relative="1" as="geometry"/>
                </mxCell>
                <mxCell id="16" style="edgeStyle=orthogonalEdgeStyle;rounded=0;orthogonalLoop=1;jettySize=auto;html=1;exitX=0.75;exitY=0;exitDx=0;exitDy=0;entryX=0.75;entryY=1;entryDx=0;entryDy=0;strokeColor=#000000;strokeWidth=2;" edge="1" parent="1" source="5" target="4">
                    <mxGeometry relative="1" as="geometry"/>
                </mxCell>
                <mxCell id="5" value="活动H5" style="rounded=0;whiteSpace=wrap;html=1;fillColor=none;verticalAlign=middle;" vertex="1" parent="1">
                    <mxGeometry x="200" y="130" width="120" height="60" as="geometry"/>
                </mxCell>
                <mxCell id="10" style="edgeStyle=orthogonalEdgeStyle;rounded=0;orthogonalLoop=1;jettySize=auto;html=1;exitX=1;exitY=0.25;exitDx=0;exitDy=0;strokeColor=#000000;strokeWidth=2;" edge="1" parent="1" source="6">
                    <mxGeometry relative="1" as="geometry">
                        <mxPoint x="638" y="295" as="targetPoint"/>
                    </mxGeometry>
                </mxCell>
                <mxCell id="14" style="edgeStyle=orthogonalEdgeStyle;rounded=0;orthogonalLoop=1;jettySize=auto;html=1;exitX=0.75;exitY=0;exitDx=0;exitDy=0;entryX=0.75;entryY=1;entryDx=0;entryDy=0;strokeColor=#000000;strokeWidth=2;" edge="1" parent="1" source="6" target="5">
                    <mxGeometry relative="1" as="geometry"/>
                </mxCell>
                <mxCell id="6" value="活动消费服务" style="rounded=0;whiteSpace=wrap;html=1;fillColor=none;verticalAlign=middle;" vertex="1" parent="1">
                    <mxGeometry x="200" y="280" width="120" height="60" as="geometry"/>
                </mxCell>
                <mxCell id="11" style="edgeStyle=orthogonalEdgeStyle;rounded=0;orthogonalLoop=1;jettySize=auto;html=1;exitX=0;exitY=0.75;exitDx=0;exitDy=0;entryX=1;entryY=0.75;entryDx=0;entryDy=0;strokeColor=#000000;strokeWidth=2;" edge="1" parent="1" source="7" target="6">
                    <mxGeometry relative="1" as="geometry">
                        <Array as="points">
                            <mxPoint x="640" y="325"/>
                        </Array>
                    </mxGeometry>
                </mxCell>
                <mxCell id="38" style="edgeStyle=orthogonalEdgeStyle;rounded=0;orthogonalLoop=1;jettySize=auto;html=1;exitX=0;exitY=0.5;exitDx=0;exitDy=0;entryX=1.013;entryY=0.884;entryDx=0;entryDy=0;entryPerimeter=0;strokeColor=#000000;strokeWidth=2;" edge="1" parent="1" source="7" target="23">
                    <mxGeometry relative="1" as="geometry">
                        <Array as="points">
                            <mxPoint x="640" y="453"/>
                        </Array>
                    </mxGeometry>
                </mxCell>
                <mxCell id="7" value="业务服务..." style="rounded=0;whiteSpace=wrap;html=1;fillColor=none;verticalAlign=middle;" vertex="1" parent="1">
                    <mxGeometry x="640" y="10" width="120" height="890" as="geometry"/>
                </mxCell>
                <mxCell id="17" value="明文请求: 请求参数明文暴露在页面请求中&lt;br&gt;&lt;br&gt;隐私请求: 请求参数仅以“代号”暴露在页面请求中；仅在服务中兑换并消费" style="text;html=1;strokeColor=none;fillColor=none;align=left;verticalAlign=top;whiteSpace=wrap;rounded=0;dashed=1;" vertex="1" parent="1">
                    <mxGeometry x="360" y="40" width="130" height="125" as="geometry"/>
                </mxCell>
                <mxCell id="19" value="缓存" style="rounded=0;whiteSpace=wrap;html=1;fillColor=none;verticalAlign=middle;" vertex="1" parent="1">
                    <mxGeometry x="-220" y="327" width="120" height="60" as="geometry"/>
                </mxCell>
                <mxCell id="20" value="数据库" style="rounded=0;whiteSpace=wrap;html=1;fillColor=none;verticalAlign=middle;" vertex="1" parent="1">
                    <mxGeometry x="-220" y="400" width="120" height="60" as="geometry"/>
                </mxCell>
                <mxCell id="21" value="COS" style="rounded=0;whiteSpace=wrap;html=1;fillColor=none;verticalAlign=middle;" vertex="1" parent="1">
                    <mxGeometry x="-220" y="255" width="120" height="60" as="geometry"/>
                </mxCell>
                <mxCell id="22" value="存储" style="rounded=0;whiteSpace=wrap;html=1;align=left;verticalAlign=top;fillColor=none;dashed=1;" vertex="1" parent="1">
                    <mxGeometry x="-238" y="200" width="150" height="290" as="geometry"/>
                </mxCell>
                <mxCell id="37" style="edgeStyle=orthogonalEdgeStyle;rounded=0;orthogonalLoop=1;jettySize=auto;html=1;exitX=1;exitY=0.25;exitDx=0;exitDy=0;entryX=0;entryY=0.456;entryDx=0;entryDy=0;entryPerimeter=0;strokeColor=#000000;strokeWidth=2;" edge="1" parent="1" source="23" target="7">
                    <mxGeometry relative="1" as="geometry"/>
                </mxCell>
                <mxCell id="23" value="活动生产(创建)服务" style="rounded=0;whiteSpace=wrap;html=1;fillColor=none;verticalAlign=middle;" vertex="1" parent="1">
                    <mxGeometry x="200" y="400" width="120" height="60" as="geometry"/>
                </mxCell>
                <mxCell id="25" value="活动组件1" style="rounded=0;whiteSpace=wrap;html=1;fillColor=none;verticalAlign=middle;" vertex="1" parent="1">
                    <mxGeometry x="50" y="605" width="120" height="60" as="geometry"/>
                </mxCell>
                <mxCell id="26" value="活动组件2" style="rounded=0;whiteSpace=wrap;html=1;fillColor=none;verticalAlign=middle;" vertex="1" parent="1">
                    <mxGeometry x="210" y="605" width="120" height="60" as="geometry"/>
                </mxCell>
                <mxCell id="27" value="活动组件3" style="rounded=0;whiteSpace=wrap;html=1;fillColor=none;verticalAlign=middle;" vertex="1" parent="1">
                    <mxGeometry x="360" y="605" width="120" height="60" as="geometry"/>
                </mxCell>
                <mxCell id="28" value="活动组件..." style="rounded=0;whiteSpace=wrap;html=1;fillColor=none;verticalAlign=middle;" vertex="1" parent="1">
                    <mxGeometry x="50" y="700" width="120" height="60" as="geometry"/>
                </mxCell>
                <mxCell id="29" value="活动组件..." style="rounded=0;whiteSpace=wrap;html=1;fillColor=none;verticalAlign=middle;" vertex="1" parent="1">
                    <mxGeometry x="210" y="700" width="120" height="60" as="geometry"/>
                </mxCell>
                <mxCell id="30" value="活动组件..." style="rounded=0;whiteSpace=wrap;html=1;fillColor=none;verticalAlign=middle;" vertex="1" parent="1">
                    <mxGeometry x="360" y="700" width="120" height="60" as="geometry"/>
                </mxCell>
                <mxCell id="31" value="活动组件..." style="rounded=0;whiteSpace=wrap;html=1;fillColor=none;verticalAlign=middle;" vertex="1" parent="1">
                    <mxGeometry x="50" y="795" width="120" height="60" as="geometry"/>
                </mxCell>
                <mxCell id="32" value="活动组件..." style="rounded=0;whiteSpace=wrap;html=1;fillColor=none;verticalAlign=middle;" vertex="1" parent="1">
                    <mxGeometry x="210" y="795" width="120" height="60" as="geometry"/>
                </mxCell>
                <mxCell id="33" value="活动组件..." style="rounded=0;whiteSpace=wrap;html=1;fillColor=none;verticalAlign=middle;" vertex="1" parent="1">
                    <mxGeometry x="360" y="795" width="120" height="60" as="geometry"/>
                </mxCell>
                <mxCell id="42" value="" style="endArrow=classic;html=1;strokeColor=#000000;strokeWidth=2;exitX=0.39;exitY=0.004;exitDx=0;exitDy=0;exitPerimeter=0;entryX=0.121;entryY=1.022;entryDx=0;entryDy=0;entryPerimeter=0;" edge="1" parent="1">
                    <mxGeometry width="50" height="50" relative="1" as="geometry">
                        <mxPoint x="233.29999999999995" y="561.28" as="sourcePoint"/>
                        <mxPoint x="234.51999999999998" y="461.31999999999994" as="targetPoint"/>
                    </mxGeometry>
                </mxCell>
                <mxCell id="43" value="" style="endArrow=classic;html=1;strokeColor=#000000;strokeWidth=2;exitX=0.75;exitY=1;exitDx=0;exitDy=0;" edge="1" parent="1" source="23">
                    <mxGeometry width="50" height="50" relative="1" as="geometry">
                        <mxPoint x="250" y="520" as="sourcePoint"/>
                        <mxPoint x="288" y="560" as="targetPoint"/>
                    </mxGeometry>
                </mxCell>
                <mxCell id="44" value="&lt;div&gt;&lt;span&gt;请求模式: 明文请求/&lt;/span&gt;&lt;span&gt;隐私请求&lt;/span&gt;&lt;/div&gt;&lt;div&gt;隐私请求内容: 系统参数/组件参数/用户参数&lt;/div&gt;" style="text;html=1;strokeColor=none;fillColor=none;align=left;verticalAlign=top;whiteSpace=wrap;rounded=0;dashed=1;" vertex="1" parent="1">
                    <mxGeometry x="30" y="490" width="250" height="50" as="geometry"/>
                </mxCell>
                <mxCell id="46" value="&lt;div&gt;&lt;span&gt;请求模式: 明文请求/&lt;/span&gt;&lt;span&gt;隐私请求&lt;/span&gt;&lt;/div&gt;&lt;div&gt;隐私请求内容: 组件参数&lt;/div&gt;" style="text;html=1;strokeColor=none;fillColor=none;align=left;verticalAlign=top;whiteSpace=wrap;rounded=0;dashed=1;" vertex="1" parent="1">
                    <mxGeometry x="70" y="210" width="160" height="50" as="geometry"/>
                </mxCell>
            </root>
        </mxGraphModel>
    </diagram>
</mxfile>